<svg xmlns="http://www.w3.org/2000/svg" xmlns:xlink="http://www.w3.org/1999/xlink" viewBox="0 0 1615.28 697.44"><defs><style>.cls-1{isolation:isolate;}.cls-2{fill:url(#linear-gradient);}.cls-3{fill:url(#linear-gradient-2);}.cls-4{fill:url(#linear-gradient-3);}.cls-5,.cls-6,.cls-8{fill:#fff;}.cls-5{opacity:0.15;}.cls-5,.cls-6{mix-blend-mode:screen;}.cls-6{opacity:0.1;}.cls-7{opacity:0.25;mix-blend-mode:multiply;}.cls-8{font-size:107.19px;font-family:Belfast-Serial-Bold, Belfast-Serial;font-weight:700;}.cls-9{letter-spacing:-0.02em;}.cls-10{letter-spacing:0em;}.cls-11{letter-spacing:-0.02em;}.cls-12{letter-spacing:-0.04em;}</style><linearGradient id="linear-gradient" x1="467.22" y1="1214.57" x2="404.81" y2="817.04" gradientUnits="userSpaceOnUse"><stop offset="0" stop-color="#ff82fd"/><stop offset="1" stop-color="#4a0e88"/></linearGradient><linearGradient id="linear-gradient-2" x1="306.05" y1="810.45" x2="767.35" y2="632.72" gradientUnits="userSpaceOnUse"><stop offset="0" stop-color="#ffd824"/><stop offset="1" stop-color="#eb3939"/></linearGradient><linearGradient id="linear-gradient-3" x1="86.82" y1="701.36" x2="407.02" y2="770.55" xlink:href="#linear-gradient"/></defs><g class="cls-1"><g id="Layer_1" data-name="Layer 1"><path class="cls-2" d="M536,796.08v226a201,201,0,0,1-51.7,134.8c-2.39,2.71-4.78,5.31-7.38,7.91a201.36,201.36,0,0,1-142.72,59.08V945.66c3.44-63.34,45-96.21,101.21-118.68C465.89,814.7,500.63,805.55,536,796.08Z" transform="translate(-126.72 -526.47)"/><path class="cls-3" d="M536,796.08c-100.48,26.84-196.49,51.81-201.8,149.58V792.13A201.72,201.72,0,0,1,536,590.34c92.57,0,194.41-9.57,227-63.87C800.41,724.1,664.56,761.76,536,796.08Z" transform="translate(-126.72 -526.47)"/><path class="cls-4" d="M536,590.34A201.76,201.76,0,0,0,334.2,792.13v18c-76,0-176.41,50.13-188.58,112C91.32,812.83,147,590.34,404.73,590.34Z" transform="translate(-126.72 -526.47)"/><path class="cls-5" d="M763,526.47C727,756.25,410.55,610.93,334.2,810.13v-18A201.72,201.72,0,0,1,536,590.34C628.57,590.34,730.41,580.77,763,526.47Z" transform="translate(-126.72 -526.47)"/><path class="cls-6" d="M536,590.34A201.59,201.59,0,0,0,356.57,699.76c-96.95.52-228.95,77.29-210.95,222.39C91.32,812.83,147,590.34,404.73,590.34Z" transform="translate(-126.72 -526.47)"/><path class="cls-7" d="M536,590.34A201.72,201.72,0,0,0,334.2,792.13v18c-30.06-79.47,19.25-192.44,83.43-219.79Z" transform="translate(-126.72 -526.47)"/><path class="cls-7" d="M536,796.08v55.24c-89.87.83-180.16,41.29-201.8,94.34C339.51,847.89,435.52,822.92,536,796.08Z" transform="translate(-126.72 -526.47)"/><path class="cls-6" d="M536,922.15v100a201.71,201.71,0,0,1-201.8,201.79V1144C442.28,1122.49,536,1005.68,536,922.15Z" transform="translate(-126.72 -526.47)"/><path class="cls-6" d="M484.3,1156.92c-2.39,2.71-4.78,5.31-7.38,7.91a201.36,201.36,0,0,1-142.72,59.08V999.65C334.2,1076.52,430.94,1145.06,484.3,1156.92Z" transform="translate(-126.72 -526.47)"/><text class="cls-8" transform="translate(452.38 379.25)">TRAININNGS ONLINE<tspan class="cls-9" x="125.68" y="128.63">L</tspan><tspan class="cls-10" x="188.17" y="128.63">earn. </tspan><tspan class="cls-11" x="466.12" y="128.63">L</tspan><tspan x="528.61" y="128.63">ead. Gr</tspan><tspan class="cls-12" x="894.55" y="128.63">o</tspan><tspan x="954.15" y="128.63">w</tspan></text></g></g></svg>